<mxfile host="65bd71144e">
    <diagram id="izr5ojlLVmo8zyCvxxbJ" name="Page-1">
        <mxGraphModel dx="676" dy="358" grid="1" gridSize="10" guides="1" tooltips="1" connect="1" arrows="1" fold="1" page="1" pageScale="1" pageWidth="850" pageHeight="300" math="1" shadow="0">
            <root>
                <mxCell id="0"/>
                <mxCell id="1" parent="0"/>
                <mxCell id="546" value="" style="endArrow=none;dashed=1;html=1;dashPattern=1 3;strokeWidth=2;" parent="1" edge="1">
                    <mxGeometry width="50" height="50" relative="1" as="geometry">
                        <mxPoint x="315" y="270" as="sourcePoint"/>
                        <mxPoint x="315" y="30" as="targetPoint"/>
                    </mxGeometry>
                </mxCell>
                <mxCell id="547" value="" style="endArrow=none;dashed=1;html=1;dashPattern=1 3;strokeWidth=2;" parent="1" edge="1">
                    <mxGeometry width="50" height="50" relative="1" as="geometry">
                        <mxPoint x="344.74" y="270" as="sourcePoint"/>
                        <mxPoint x="344.74" y="30" as="targetPoint"/>
                    </mxGeometry>
                </mxCell>
                <mxCell id="548" value="sgns" style="text;html=1;align=center;verticalAlign=middle;resizable=0;points=[];autosize=1;strokeColor=none;fillColor=none;fontSize=12;" parent="1" vertex="1">
                    <mxGeometry x="365" y="235" width="50" height="30" as="geometry"/>
                </mxCell>
                <mxCell id="549" value="$$E_{max}$$" style="text;html=1;align=center;verticalAlign=middle;resizable=0;points=[];autosize=1;strokeColor=none;fillColor=none;fontSize=12;" parent="1" vertex="1">
                    <mxGeometry x="333" y="100" width="100" height="30" as="geometry"/>
                </mxCell>
                <mxCell id="550" value="mans" style="text;html=1;align=center;verticalAlign=middle;resizable=0;points=[];autosize=1;strokeColor=none;fillColor=none;fontSize=12;" parent="1" vertex="1">
                    <mxGeometry x="365" y="175" width="50" height="30" as="geometry"/>
                </mxCell>
                <mxCell id="551" value="BF16" style="text;html=1;align=center;verticalAlign=middle;resizable=0;points=[];autosize=1;strokeColor=none;fillColor=none;" parent="1" vertex="1">
                    <mxGeometry x="105" y="99.99999999999989" width="50" height="30" as="geometry"/>
                </mxCell>
                <mxCell id="552" style="edgeStyle=orthogonalEdgeStyle;html=1;strokeWidth=2;entryX=0.5;entryY=1;entryDx=0;entryDy=0;" parent="1" source="557" target="560" edge="1">
                    <mxGeometry relative="1" as="geometry">
                        <Array as="points">
                            <mxPoint x="365" y="140"/>
                            <mxPoint x="365" y="260"/>
                            <mxPoint x="635" y="260"/>
                            <mxPoint x="635" y="200"/>
                        </Array>
                        <mxPoint x="705" y="230" as="targetPoint"/>
                    </mxGeometry>
                </mxCell>
                <mxCell id="553" style="edgeStyle=orthogonalEdgeStyle;html=1;entryX=0;entryY=0.5;entryDx=0;entryDy=0;strokeWidth=2;" parent="1" source="557" target="573" edge="1">
                    <mxGeometry relative="1" as="geometry">
                        <Array as="points">
                            <mxPoint x="195" y="140"/>
                            <mxPoint x="195" y="100"/>
                        </Array>
                    </mxGeometry>
                </mxCell>
                <mxCell id="554" style="edgeStyle=orthogonalEdgeStyle;html=1;entryX=0.5;entryY=0;entryDx=0;entryDy=0;strokeWidth=2;" parent="1" source="557" target="578" edge="1">
                    <mxGeometry relative="1" as="geometry">
                        <Array as="points">
                            <mxPoint x="445" y="140"/>
                            <mxPoint x="445" y="170"/>
                            <mxPoint x="480" y="170"/>
                        </Array>
                    </mxGeometry>
                </mxCell>
                <mxCell id="555" style="edgeStyle=orthogonalEdgeStyle;html=1;entryX=0;entryY=0.5;entryDx=0;entryDy=0;strokeWidth=2;" parent="1" source="557" target="578" edge="1">
                    <mxGeometry relative="1" as="geometry">
                        <Array as="points">
                            <mxPoint x="365" y="140"/>
                            <mxPoint x="365" y="200"/>
                        </Array>
                    </mxGeometry>
                </mxCell>
                <mxCell id="556" style="edgeStyle=orthogonalEdgeStyle;html=1;entryX=0;entryY=0.5;entryDx=0;entryDy=0;strokeWidth=2;" parent="1" source="557" target="586" edge="1">
                    <mxGeometry relative="1" as="geometry">
                        <Array as="points">
                            <mxPoint x="365" y="140"/>
                            <mxPoint x="365" y="235"/>
                        </Array>
                    </mxGeometry>
                </mxCell>
                <mxCell id="557" value="&amp;nbsp; &amp;nbsp;Input [k]" style="shape=offPageConnector;whiteSpace=wrap;html=1;rotation=0;direction=north;labelPosition=center;verticalLabelPosition=middle;align=left;verticalAlign=middle;size=0.16666666666666666;" parent="1" vertex="1">
                    <mxGeometry x="105" y="130" width="80" height="20.05" as="geometry"/>
                </mxCell>
                <mxCell id="558" style="edgeStyle=orthogonalEdgeStyle;html=1;entryX=0;entryY=0.5;entryDx=0;entryDy=0;fontSize=12;strokeWidth=2;" parent="1" target="567" edge="1">
                    <mxGeometry relative="1" as="geometry">
                        <mxPoint x="550" y="155.04999999999995" as="targetPoint"/>
                        <mxPoint x="235" y="140.04999999999995" as="sourcePoint"/>
                        <Array as="points">
                            <mxPoint x="305" y="140.04999999999995"/>
                            <mxPoint x="305" y="140.04999999999995"/>
                        </Array>
                    </mxGeometry>
                </mxCell>
                <mxCell id="559" value="exps" style="text;html=1;align=center;verticalAlign=middle;resizable=0;points=[];autosize=1;strokeColor=none;fillColor=none;fontSize=12;" parent="1" vertex="1">
                    <mxGeometry x="155" y="80.04999999999995" width="50" height="30" as="geometry"/>
                </mxCell>
                <mxCell id="560" value="&lt;span style=&quot;text-align: left;&quot;&gt;Values [k]&amp;nbsp; &amp;nbsp;&lt;/span&gt;" style="shape=offPageConnector;whiteSpace=wrap;html=1;rotation=0;direction=south;labelPosition=center;verticalLabelPosition=middle;align=right;verticalAlign=middle;size=0.16666666666666666;" parent="1" vertex="1">
                    <mxGeometry x="665" y="189.94000000000005" width="80" height="20.06" as="geometry"/>
                </mxCell>
                <mxCell id="561" value="&lt;span style=&quot;text-align: left;&quot;&gt;Scale&amp;nbsp; &amp;nbsp;&lt;/span&gt;" style="shape=offPageConnector;whiteSpace=wrap;html=1;rotation=0;direction=south;labelPosition=center;verticalLabelPosition=middle;align=right;verticalAlign=middle;size=0.16666666666666666;" parent="1" vertex="1">
                    <mxGeometry x="665" y="80" width="80" height="19.99" as="geometry"/>
                </mxCell>
                <mxCell id="562" style="edgeStyle=none;html=1;entryX=0.5;entryY=1;entryDx=0;entryDy=0;strokeWidth=2;" parent="1" source="563" target="560" edge="1">
                    <mxGeometry relative="1" as="geometry"/>
                </mxCell>
                <mxCell id="563" value="u_fp_rnd_nan" style="rounded=0;whiteSpace=wrap;html=1;" parent="1" vertex="1">
                    <mxGeometry x="545" y="187.5" width="80" height="25" as="geometry"/>
                </mxCell>
                <mxCell id="564" value="E8M0" style="text;html=1;align=center;verticalAlign=middle;resizable=0;points=[];autosize=1;strokeColor=none;fillColor=none;fontSize=12;" parent="1" vertex="1">
                    <mxGeometry x="695" y="50.05000000000007" width="50" height="30" as="geometry"/>
                </mxCell>
                <mxCell id="565" value="FP8" style="text;html=1;align=center;verticalAlign=middle;resizable=0;points=[];autosize=1;strokeColor=none;fillColor=none;fontSize=12;" parent="1" vertex="1">
                    <mxGeometry x="695" y="159.94000000000005" width="50" height="30" as="geometry"/>
                </mxCell>
                <mxCell id="566" style="edgeStyle=orthogonalEdgeStyle;html=1;entryX=0.5;entryY=0;entryDx=0;entryDy=0;strokeWidth=2;" parent="1" source="567" target="563" edge="1">
                    <mxGeometry relative="1" as="geometry"/>
                </mxCell>
                <mxCell id="567" value="-" style="ellipse;whiteSpace=wrap;html=1;aspect=fixed;fontSize=24;" parent="1" vertex="1">
                    <mxGeometry x="480" y="124.95000000000005" width="30" height="30" as="geometry"/>
                </mxCell>
                <mxCell id="568" value="exps" style="text;html=1;align=center;verticalAlign=middle;resizable=0;points=[];autosize=1;strokeColor=none;fillColor=none;fontSize=12;" parent="1" vertex="1">
                    <mxGeometry x="425" y="114.97000000000003" width="50" height="30" as="geometry"/>
                </mxCell>
                <mxCell id="569" value="" style="endArrow=none;dashed=1;html=1;dashPattern=1 3;strokeWidth=2;" parent="1" edge="1">
                    <mxGeometry width="50" height="50" relative="1" as="geometry">
                        <mxPoint x="525" y="270" as="sourcePoint"/>
                        <mxPoint x="525" y="30" as="targetPoint"/>
                    </mxGeometry>
                </mxCell>
                <mxCell id="570" value="" style="endArrow=none;dashed=1;html=1;dashPattern=1 3;strokeWidth=2;" parent="1" edge="1">
                    <mxGeometry width="50" height="50" relative="1" as="geometry">
                        <mxPoint x="645" y="270" as="sourcePoint"/>
                        <mxPoint x="645" y="30" as="targetPoint"/>
                    </mxGeometry>
                </mxCell>
                <mxCell id="571" style="edgeStyle=orthogonalEdgeStyle;html=1;strokeWidth=1;entryX=0.5;entryY=1;entryDx=0;entryDy=0;exitX=1;exitY=0.5;exitDx=0;exitDy=0;" parent="1" source="580" target="561" edge="1">
                    <mxGeometry relative="1" as="geometry">
                        <mxPoint x="757.5" y="90" as="targetPoint"/>
                        <mxPoint x="567.5" y="70" as="sourcePoint"/>
                    </mxGeometry>
                </mxCell>
                <mxCell id="572" style="edgeStyle=orthogonalEdgeStyle;html=1;entryX=0;entryY=0.5;entryDx=0;entryDy=0;strokeWidth=2;" parent="1" source="573" target="575" edge="1">
                    <mxGeometry relative="1" as="geometry">
                        <Array as="points">
                            <mxPoint x="235" y="100"/>
                        </Array>
                    </mxGeometry>
                </mxCell>
                <mxCell id="573" value="NaN/&lt;br&gt;Inf?" style="rounded=0;whiteSpace=wrap;html=1;strokeWidth=1;" parent="1" vertex="1">
                    <mxGeometry x="215" y="80.05" width="40" height="40" as="geometry"/>
                </mxCell>
                <mxCell id="574" style="edgeStyle=orthogonalEdgeStyle;html=1;entryX=0;entryY=0.75;entryDx=0;entryDy=0;" parent="1" source="575" target="583" edge="1">
                    <mxGeometry relative="1" as="geometry"/>
                </mxCell>
                <mxCell id="575" value="$$\max_{i} (\text{exp}_i)$$" style="rounded=0;whiteSpace=wrap;html=1;" parent="1" vertex="1">
                    <mxGeometry x="285" y="80" width="80" height="39.95" as="geometry"/>
                </mxCell>
                <mxCell id="576" value="$$d_{shift}$$" style="text;html=1;align=center;verticalAlign=middle;resizable=0;points=[];autosize=1;strokeColor=none;fillColor=none;" parent="1" vertex="1">
                    <mxGeometry x="510" y="110.05000000000007" width="90" height="30" as="geometry"/>
                </mxCell>
                <mxCell id="577" style="edgeStyle=orthogonalEdgeStyle;html=1;entryX=0;entryY=0.5;entryDx=0;entryDy=0;strokeWidth=2;" parent="1" source="578" target="563" edge="1">
                    <mxGeometry relative="1" as="geometry"/>
                </mxCell>
                <mxCell id="578" value="Denorm?" style="whiteSpace=wrap;html=1;" parent="1" vertex="1">
                    <mxGeometry x="450" y="190" width="60" height="20" as="geometry"/>
                </mxCell>
                <mxCell id="579" style="edgeStyle=orthogonalEdgeStyle;html=1;entryX=0;entryY=0.25;entryDx=0;entryDy=0;exitX=0.5;exitY=1;exitDx=0;exitDy=0;" parent="1" source="589" target="583" edge="1">
                    <mxGeometry relative="1" as="geometry">
                        <mxPoint x="375.0000000000001" y="60" as="sourcePoint"/>
                    </mxGeometry>
                </mxCell>
                <mxCell id="580" value="-" style="ellipse;whiteSpace=wrap;html=1;aspect=fixed;fontSize=24;" parent="1" vertex="1">
                    <mxGeometry x="480" y="75.04999999999995" width="30" height="30" as="geometry"/>
                </mxCell>
                <mxCell id="581" style="edgeStyle=orthogonalEdgeStyle;html=1;entryX=0.5;entryY=0;entryDx=0;entryDy=0;strokeWidth=1;" parent="1" source="583" target="567" edge="1">
                    <mxGeometry relative="1" as="geometry">
                        <Array as="points">
                            <mxPoint x="445" y="90"/>
                            <mxPoint x="445" y="110"/>
                            <mxPoint x="495" y="110"/>
                        </Array>
                    </mxGeometry>
                </mxCell>
                <mxCell id="582" style="edgeStyle=orthogonalEdgeStyle;html=1;entryX=0;entryY=0.5;entryDx=0;entryDy=0;strokeWidth=1;" parent="1" source="583" target="580" edge="1">
                    <mxGeometry relative="1" as="geometry"/>
                </mxCell>
                <mxCell id="583" value="max" style="rounded=0;whiteSpace=wrap;html=1;" parent="1" vertex="1">
                    <mxGeometry x="390" y="70.04999999999995" width="30" height="40" as="geometry"/>
                </mxCell>
                <mxCell id="584" value="" style="endArrow=none;dashed=1;html=1;dashPattern=1 3;strokeWidth=2;" parent="1" edge="1">
                    <mxGeometry width="50" height="50" relative="1" as="geometry">
                        <mxPoint x="433" y="270" as="sourcePoint"/>
                        <mxPoint x="433" y="30" as="targetPoint"/>
                    </mxGeometry>
                </mxCell>
                <mxCell id="585" style="edgeStyle=orthogonalEdgeStyle;html=1;entryX=0.5;entryY=1;entryDx=0;entryDy=0;strokeWidth=2;" parent="1" source="586" target="563" edge="1">
                    <mxGeometry relative="1" as="geometry"/>
                </mxCell>
                <mxCell id="586" value="NaN/Inf?" style="rounded=0;whiteSpace=wrap;html=1;strokeWidth=1;" parent="1" vertex="1">
                    <mxGeometry x="455" y="225" width="55" height="20" as="geometry"/>
                </mxCell>
                <mxCell id="587" value="exps" style="text;html=1;align=center;verticalAlign=middle;resizable=0;points=[];autosize=1;strokeColor=none;fillColor=none;fontSize=12;" parent="1" vertex="1">
                    <mxGeometry x="365" y="210" width="50" height="30" as="geometry"/>
                </mxCell>
                <mxCell id="588" style="edgeStyle=orthogonalEdgeStyle;html=1;entryX=0.5;entryY=0;entryDx=0;entryDy=0;strokeWidth=1;elbow=vertical;" parent="1" source="589" target="580" edge="1">
                    <mxGeometry relative="1" as="geometry"/>
                </mxCell>
                <mxCell id="589" value="&lt;span style=&quot;&quot;&gt;$$2^{E-1}$$&lt;/span&gt;" style="rounded=1;whiteSpace=wrap;html=1;" parent="1" vertex="1">
                    <mxGeometry x="353" y="30" width="42" height="30" as="geometry"/>
                </mxCell>
            </root>
        </mxGraphModel>
    </diagram>
</mxfile>